<svg id="Layer_1" data-name="Layer 1" xmlns="http://www.w3.org/2000/svg" viewBox="0 0 667.56 692.11"><defs><style>.cls-1{fill:#03fc7a;}.cls-2{fill:#fff;}</style></defs><title>Untitled-1</title><rect class="cls-1" width="149.18" height="146.61"/><path class="cls-2" d="M808.29,804.2l-197.58-324c1.17-.82,2.34-1.75,3.51-2.69l.7-.46c.82-.71,1.64-1.29,2.46-2,1.4-1.17,2.92-2.34,4.32-3.51,2-1.64,4-3.16,5.85-4.79l.7-.7,4.56-3.86c4.33-3.86,8.65-7.95,13.21-12.39a345.85,345.85,0,0,0,102.88-246c0-8-.35-16.13-.93-24.31l-1.75-25.61h-350L315.4,300.55H577.16A198.83,198.83,0,0,1,543,345.44a196.58,196.58,0,0,1-60.67,41,16.16,16.16,0,0,1-2.11.93,197,197,0,0,1-76.81,15.32h0L306.86,549.34H410.45l.23-.12h3.62c1.76-.12,3.51-.12,5.27-.23.81,0,1.52-.12,2.1-.12l6.66-.35h1.52l1.17-.24c2.34-.23,4.68-.46,7.37-.7l6.9-.7a28.63,28.63,0,0,1,3-.47c2.22-.23,4.44-.58,6.66-.93h.23l2.46-.35c2-.35,3.74-.59,5.26-.94,4.44-.7,9-1.63,13.44-2.57L654,832.85,662,846.06H833.78Z" transform="translate(-166.22 -153.94)"/><polygon class="cls-2" points="0 692.11 146.61 692.11 146.61 395.39 149.18 395.39 149.18 248.79 0 248.79 0 692.11"/></svg>